<mxfile host="app.diagrams.net" agent="Mozilla/5.0 (Macintosh; Intel Mac OS X 10_15_7) AppleWebKit/537.36 (KHTML, like Gecko) Chrome/131.0.0.0 Safari/537.36" version="24.8.6">
  <diagram name="第 1 页" id="lIG6AbvrwLJNRqTLjKoE">
    <mxGraphModel dx="1339" dy="626" grid="0" gridSize="10" guides="1" tooltips="1" connect="1" arrows="1" fold="1" page="1" pageScale="1" pageWidth="827" pageHeight="1169" math="0" shadow="0">
      <root>
        <mxCell id="0" />
        <mxCell id="1" parent="0" />
        <mxCell id="R4zDQmTQU1hdGrHyziUh-1" value="agent" style="rounded=1;whiteSpace=wrap;html=1;" vertex="1" parent="1">
          <mxGeometry x="147" y="166" width="96" height="31" as="geometry" />
        </mxCell>
        <mxCell id="R4zDQmTQU1hdGrHyziUh-2" value="知识库" style="rounded=1;whiteSpace=wrap;html=1;" vertex="1" parent="1">
          <mxGeometry x="145" y="210" width="96" height="31" as="geometry" />
        </mxCell>
        <mxCell id="R4zDQmTQU1hdGrHyziUh-3" value="工具" style="rounded=1;whiteSpace=wrap;html=1;" vertex="1" parent="1">
          <mxGeometry x="145" y="254" width="96" height="31" as="geometry" />
        </mxCell>
        <mxCell id="R4zDQmTQU1hdGrHyziUh-4" value="" style="endArrow=none;html=1;rounded=0;" edge="1" parent="1">
          <mxGeometry width="50" height="50" relative="1" as="geometry">
            <mxPoint x="147" y="142" as="sourcePoint" />
            <mxPoint x="723" y="142" as="targetPoint" />
          </mxGeometry>
        </mxCell>
        <mxCell id="R4zDQmTQU1hdGrHyziUh-5" value="" style="rounded=0;whiteSpace=wrap;html=1;" vertex="1" parent="1">
          <mxGeometry x="306" y="166" width="412" height="247" as="geometry" />
        </mxCell>
        <mxCell id="R4zDQmTQU1hdGrHyziUh-6" value="模型" style="rounded=1;whiteSpace=wrap;html=1;" vertex="1" parent="1">
          <mxGeometry x="339" y="180" width="52" height="28" as="geometry" />
        </mxCell>
        <mxCell id="R4zDQmTQU1hdGrHyziUh-14" style="edgeStyle=orthogonalEdgeStyle;rounded=0;orthogonalLoop=1;jettySize=auto;html=1;entryX=0.5;entryY=0;entryDx=0;entryDy=0;" edge="1" parent="1" source="R4zDQmTQU1hdGrHyziUh-8" target="R4zDQmTQU1hdGrHyziUh-13">
          <mxGeometry relative="1" as="geometry" />
        </mxCell>
        <mxCell id="R4zDQmTQU1hdGrHyziUh-8" value="语音识别" style="rounded=1;whiteSpace=wrap;html=1;" vertex="1" parent="1">
          <mxGeometry x="405" y="180" width="57" height="28" as="geometry" />
        </mxCell>
        <mxCell id="R4zDQmTQU1hdGrHyziUh-9" value="声音" style="rounded=1;whiteSpace=wrap;html=1;" vertex="1" parent="1">
          <mxGeometry x="476" y="180" width="52" height="28" as="geometry" />
        </mxCell>
        <mxCell id="R4zDQmTQU1hdGrHyziUh-13" value="实时的语音对话demo" style="rounded=0;whiteSpace=wrap;html=1;" vertex="1" parent="1">
          <mxGeometry x="342.5" y="266" width="182" height="86" as="geometry" />
        </mxCell>
        <mxCell id="R4zDQmTQU1hdGrHyziUh-22" style="edgeStyle=orthogonalEdgeStyle;rounded=0;orthogonalLoop=1;jettySize=auto;html=1;entryX=0;entryY=0.5;entryDx=0;entryDy=0;" edge="1" parent="1" source="R4zDQmTQU1hdGrHyziUh-16" target="R4zDQmTQU1hdGrHyziUh-17">
          <mxGeometry relative="1" as="geometry" />
        </mxCell>
        <mxCell id="R4zDQmTQU1hdGrHyziUh-23" style="edgeStyle=orthogonalEdgeStyle;rounded=0;orthogonalLoop=1;jettySize=auto;html=1;entryX=0;entryY=0.5;entryDx=0;entryDy=0;" edge="1" parent="1" source="R4zDQmTQU1hdGrHyziUh-16" target="R4zDQmTQU1hdGrHyziUh-18">
          <mxGeometry relative="1" as="geometry" />
        </mxCell>
        <mxCell id="R4zDQmTQU1hdGrHyziUh-24" style="edgeStyle=orthogonalEdgeStyle;rounded=0;orthogonalLoop=1;jettySize=auto;html=1;" edge="1" parent="1" source="R4zDQmTQU1hdGrHyziUh-16" target="R4zDQmTQU1hdGrHyziUh-19">
          <mxGeometry relative="1" as="geometry" />
        </mxCell>
        <mxCell id="R4zDQmTQU1hdGrHyziUh-25" style="edgeStyle=orthogonalEdgeStyle;rounded=0;orthogonalLoop=1;jettySize=auto;html=1;entryX=0;entryY=0.75;entryDx=0;entryDy=0;" edge="1" parent="1" source="R4zDQmTQU1hdGrHyziUh-16" target="R4zDQmTQU1hdGrHyziUh-20">
          <mxGeometry relative="1" as="geometry" />
        </mxCell>
        <mxCell id="R4zDQmTQU1hdGrHyziUh-27" style="edgeStyle=orthogonalEdgeStyle;rounded=0;orthogonalLoop=1;jettySize=auto;html=1;entryX=0;entryY=0.5;entryDx=0;entryDy=0;" edge="1" parent="1" source="R4zDQmTQU1hdGrHyziUh-16" target="R4zDQmTQU1hdGrHyziUh-21">
          <mxGeometry relative="1" as="geometry" />
        </mxCell>
        <mxCell id="R4zDQmTQU1hdGrHyziUh-16" value="模型" style="rounded=1;whiteSpace=wrap;html=1;" vertex="1" parent="1">
          <mxGeometry x="166" y="587" width="58" height="33" as="geometry" />
        </mxCell>
        <mxCell id="R4zDQmTQU1hdGrHyziUh-17" value="欢迎词" style="rounded=1;whiteSpace=wrap;html=1;" vertex="1" parent="1">
          <mxGeometry x="281" y="514" width="66" height="27" as="geometry" />
        </mxCell>
        <mxCell id="R4zDQmTQU1hdGrHyziUh-18" value="提示词" style="rounded=1;whiteSpace=wrap;html=1;" vertex="1" parent="1">
          <mxGeometry x="281" y="552" width="66" height="27" as="geometry" />
        </mxCell>
        <mxCell id="R4zDQmTQU1hdGrHyziUh-19" value="模型选择" style="rounded=1;whiteSpace=wrap;html=1;" vertex="1" parent="1">
          <mxGeometry x="281" y="590" width="66" height="27" as="geometry" />
        </mxCell>
        <mxCell id="R4zDQmTQU1hdGrHyziUh-20" value="知识库" style="rounded=1;whiteSpace=wrap;html=1;" vertex="1" parent="1">
          <mxGeometry x="281" y="628" width="66" height="27" as="geometry" />
        </mxCell>
        <mxCell id="R4zDQmTQU1hdGrHyziUh-21" value="工具" style="rounded=1;whiteSpace=wrap;html=1;" vertex="1" parent="1">
          <mxGeometry x="281" y="666" width="66" height="27" as="geometry" />
        </mxCell>
        <mxCell id="R4zDQmTQU1hdGrHyziUh-30" style="edgeStyle=orthogonalEdgeStyle;rounded=0;orthogonalLoop=1;jettySize=auto;html=1;entryX=0;entryY=0.5;entryDx=0;entryDy=0;" edge="1" parent="1" source="R4zDQmTQU1hdGrHyziUh-28" target="R4zDQmTQU1hdGrHyziUh-29">
          <mxGeometry relative="1" as="geometry" />
        </mxCell>
        <mxCell id="R4zDQmTQU1hdGrHyziUh-28" value="语音识别" style="rounded=1;whiteSpace=wrap;html=1;" vertex="1" parent="1">
          <mxGeometry x="425" y="590" width="64" height="33" as="geometry" />
        </mxCell>
        <mxCell id="R4zDQmTQU1hdGrHyziUh-29" value="语音识别模型" style="rounded=1;whiteSpace=wrap;html=1;" vertex="1" parent="1">
          <mxGeometry x="531" y="590" width="91" height="33" as="geometry" />
        </mxCell>
        <mxCell id="R4zDQmTQU1hdGrHyziUh-33" style="edgeStyle=orthogonalEdgeStyle;rounded=0;orthogonalLoop=1;jettySize=auto;html=1;entryX=0;entryY=0.5;entryDx=0;entryDy=0;" edge="1" parent="1" source="R4zDQmTQU1hdGrHyziUh-31" target="R4zDQmTQU1hdGrHyziUh-32">
          <mxGeometry relative="1" as="geometry" />
        </mxCell>
        <mxCell id="R4zDQmTQU1hdGrHyziUh-35" style="edgeStyle=orthogonalEdgeStyle;rounded=0;orthogonalLoop=1;jettySize=auto;html=1;entryX=0;entryY=0.5;entryDx=0;entryDy=0;" edge="1" parent="1" source="R4zDQmTQU1hdGrHyziUh-31" target="R4zDQmTQU1hdGrHyziUh-34">
          <mxGeometry relative="1" as="geometry" />
        </mxCell>
        <mxCell id="R4zDQmTQU1hdGrHyziUh-31" value="声音" style="rounded=1;whiteSpace=wrap;html=1;" vertex="1" parent="1">
          <mxGeometry x="164" y="777" width="58" height="33" as="geometry" />
        </mxCell>
        <mxCell id="R4zDQmTQU1hdGrHyziUh-32" value="预制不同角色的声音" style="rounded=1;whiteSpace=wrap;html=1;" vertex="1" parent="1">
          <mxGeometry x="316" y="777" width="147" height="33" as="geometry" />
        </mxCell>
        <mxCell id="R4zDQmTQU1hdGrHyziUh-34" value="声音克隆" style="rounded=1;whiteSpace=wrap;html=1;" vertex="1" parent="1">
          <mxGeometry x="316" y="825" width="147" height="33" as="geometry" />
        </mxCell>
      </root>
    </mxGraphModel>
  </diagram>
</mxfile>
